<mxfile host="app.diagrams.net" agent="Mozilla/5.0 (Windows NT 10.0; Win64; x64) AppleWebKit/537.36 (KHTML, like Gecko) Chrome/130.0.0.0 Safari/537.36" version="24.8.3">
  <diagram name="Page-1" id="7dkvAEbiFRIWUD9BU-Bl">
    <mxGraphModel dx="794" dy="446" grid="1" gridSize="10" guides="1" tooltips="1" connect="1" arrows="1" fold="1" page="1" pageScale="1" pageWidth="827" pageHeight="1169" math="0" shadow="0">
      <root>
        <mxCell id="0" />
        <mxCell id="1" parent="0" />
        <mxCell id="nwxhbYPmNWlyOMwlKoJM-1" value="Mulai" style="rounded=1;whiteSpace=wrap;arcSize=50;strokeWidth=2;" vertex="1" parent="1">
          <mxGeometry x="186" y="20" width="62" height="34" as="geometry" />
        </mxCell>
        <mxCell id="nwxhbYPmNWlyOMwlKoJM-2" value="Inisialisasi Serial pada Baud Rate 115200" style="whiteSpace=wrap;strokeWidth=2;" vertex="1" parent="1">
          <mxGeometry x="89" y="104" width="257" height="66" as="geometry" />
        </mxCell>
        <mxCell id="nwxhbYPmNWlyOMwlKoJM-3" value="Menampilkan pesan kosong di Serial Monitor" style="whiteSpace=wrap;strokeWidth=2;" vertex="1" parent="1">
          <mxGeometry x="90" y="220" width="254" height="66" as="geometry" />
        </mxCell>
        <mxCell id="nwxhbYPmNWlyOMwlKoJM-4" value="Memulai koneksi Wi-Fi dengan SSID dan password" style="whiteSpace=wrap;strokeWidth=2;" vertex="1" parent="1">
          <mxGeometry x="93" y="336" width="248" height="66" as="geometry" />
        </mxCell>
        <mxCell id="nwxhbYPmNWlyOMwlKoJM-5" value="Menampilkan pesan: Menghubungkan ke SSID di Serial Monitor" style="whiteSpace=wrap;strokeWidth=2;" vertex="1" parent="1">
          <mxGeometry x="93" y="452" width="249" height="84" as="geometry" />
        </mxCell>
        <mxCell id="nwxhbYPmNWlyOMwlKoJM-6" value="Apakah ESP8266 sudah terhubung ke Wi-Fi?" style="rhombus;strokeWidth=2;whiteSpace=wrap;" vertex="1" parent="1">
          <mxGeometry x="103" y="586" width="229" height="229" as="geometry" />
        </mxCell>
        <mxCell id="nwxhbYPmNWlyOMwlKoJM-7" value="Delay 600 ms" style="whiteSpace=wrap;strokeWidth=2;" vertex="1" parent="1">
          <mxGeometry x="20" y="896" width="154" height="49" as="geometry" />
        </mxCell>
        <mxCell id="nwxhbYPmNWlyOMwlKoJM-8" value="Menampilkan angka percobaan koneksi di Serial Monitor" style="whiteSpace=wrap;strokeWidth=2;" vertex="1" parent="1">
          <mxGeometry x="25" y="1004" width="256" height="84" as="geometry" />
        </mxCell>
        <mxCell id="nwxhbYPmNWlyOMwlKoJM-9" value="Menampilkan status: Terhubung di Serial Monitor" style="whiteSpace=wrap;strokeWidth=2;" vertex="1" parent="1">
          <mxGeometry x="316" y="888" width="258" height="66" as="geometry" />
        </mxCell>
        <mxCell id="nwxhbYPmNWlyOMwlKoJM-10" value="Menampilkan alamat IP lokal di Serial Monitor" style="whiteSpace=wrap;strokeWidth=2;" vertex="1" parent="1">
          <mxGeometry x="331" y="1013" width="227" height="66" as="geometry" />
        </mxCell>
        <mxCell id="nwxhbYPmNWlyOMwlKoJM-11" value="Program Siap" style="whiteSpace=wrap;strokeWidth=2;" vertex="1" parent="1">
          <mxGeometry x="368" y="1138" width="153" height="49" as="geometry" />
        </mxCell>
        <mxCell id="nwxhbYPmNWlyOMwlKoJM-12" value="Loop Tanpa Tindakan" style="whiteSpace=wrap;strokeWidth=2;" vertex="1" parent="1">
          <mxGeometry x="340" y="1236" width="209" height="49" as="geometry" />
        </mxCell>
        <mxCell id="nwxhbYPmNWlyOMwlKoJM-13" value="" style="curved=1;startArrow=none;endArrow=block;exitX=0.5;exitY=0.99;entryX=0.5;entryY=-0.01;rounded=0;" edge="1" parent="1" source="nwxhbYPmNWlyOMwlKoJM-1" target="nwxhbYPmNWlyOMwlKoJM-2">
          <mxGeometry relative="1" as="geometry">
            <Array as="points" />
          </mxGeometry>
        </mxCell>
        <mxCell id="nwxhbYPmNWlyOMwlKoJM-14" value="" style="curved=1;startArrow=none;endArrow=block;exitX=0.5;exitY=1;entryX=0.5;entryY=0;rounded=0;" edge="1" parent="1" source="nwxhbYPmNWlyOMwlKoJM-2" target="nwxhbYPmNWlyOMwlKoJM-3">
          <mxGeometry relative="1" as="geometry">
            <Array as="points" />
          </mxGeometry>
        </mxCell>
        <mxCell id="nwxhbYPmNWlyOMwlKoJM-15" value="" style="curved=1;startArrow=none;endArrow=block;exitX=0.5;exitY=1;entryX=0.5;entryY=0;rounded=0;" edge="1" parent="1" source="nwxhbYPmNWlyOMwlKoJM-3" target="nwxhbYPmNWlyOMwlKoJM-4">
          <mxGeometry relative="1" as="geometry">
            <Array as="points" />
          </mxGeometry>
        </mxCell>
        <mxCell id="nwxhbYPmNWlyOMwlKoJM-16" value="" style="curved=1;startArrow=none;endArrow=block;exitX=0.5;exitY=1.01;entryX=0.5;entryY=0.01;rounded=0;" edge="1" parent="1" source="nwxhbYPmNWlyOMwlKoJM-4" target="nwxhbYPmNWlyOMwlKoJM-5">
          <mxGeometry relative="1" as="geometry">
            <Array as="points" />
          </mxGeometry>
        </mxCell>
        <mxCell id="nwxhbYPmNWlyOMwlKoJM-17" value="" style="curved=1;startArrow=none;endArrow=block;exitX=0.5;exitY=1;entryX=0.5;entryY=0;rounded=0;" edge="1" parent="1" source="nwxhbYPmNWlyOMwlKoJM-5" target="nwxhbYPmNWlyOMwlKoJM-6">
          <mxGeometry relative="1" as="geometry">
            <Array as="points" />
          </mxGeometry>
        </mxCell>
        <mxCell id="nwxhbYPmNWlyOMwlKoJM-18" value="Tidak" style="curved=1;startArrow=none;endArrow=block;exitX=0.1;exitY=1;entryX=0.5;entryY=0.01;rounded=0;" edge="1" parent="1" source="nwxhbYPmNWlyOMwlKoJM-6" target="nwxhbYPmNWlyOMwlKoJM-7">
          <mxGeometry relative="1" as="geometry">
            <Array as="points">
              <mxPoint x="97" y="851" />
            </Array>
          </mxGeometry>
        </mxCell>
        <mxCell id="nwxhbYPmNWlyOMwlKoJM-19" value="" style="curved=1;startArrow=none;endArrow=block;exitX=0.5;exitY=1;entryX=0.36;entryY=0;rounded=0;" edge="1" parent="1" source="nwxhbYPmNWlyOMwlKoJM-7" target="nwxhbYPmNWlyOMwlKoJM-8">
          <mxGeometry relative="1" as="geometry">
            <Array as="points">
              <mxPoint x="97" y="979" />
            </Array>
          </mxGeometry>
        </mxCell>
        <mxCell id="nwxhbYPmNWlyOMwlKoJM-20" value="" style="curved=1;startArrow=none;endArrow=block;exitX=0.66;exitY=0;entryX=0.5;entryY=1;rounded=0;" edge="1" parent="1" source="nwxhbYPmNWlyOMwlKoJM-8" target="nwxhbYPmNWlyOMwlKoJM-6">
          <mxGeometry relative="1" as="geometry">
            <Array as="points">
              <mxPoint x="217" y="979" />
            </Array>
          </mxGeometry>
        </mxCell>
        <mxCell id="nwxhbYPmNWlyOMwlKoJM-21" value="Ya" style="curved=1;startArrow=none;endArrow=block;exitX=1;exitY=0.83;entryX=0.5;entryY=-0.01;rounded=0;" edge="1" parent="1" source="nwxhbYPmNWlyOMwlKoJM-6" target="nwxhbYPmNWlyOMwlKoJM-9">
          <mxGeometry relative="1" as="geometry">
            <Array as="points">
              <mxPoint x="445" y="851" />
            </Array>
          </mxGeometry>
        </mxCell>
        <mxCell id="nwxhbYPmNWlyOMwlKoJM-22" value="" style="curved=1;startArrow=none;endArrow=block;exitX=0.5;exitY=1;entryX=0.5;entryY=-0.01;rounded=0;" edge="1" parent="1" source="nwxhbYPmNWlyOMwlKoJM-9" target="nwxhbYPmNWlyOMwlKoJM-10">
          <mxGeometry relative="1" as="geometry">
            <Array as="points" />
          </mxGeometry>
        </mxCell>
        <mxCell id="nwxhbYPmNWlyOMwlKoJM-23" value="" style="curved=1;startArrow=none;endArrow=block;exitX=0.5;exitY=1;entryX=0.5;entryY=-0.01;rounded=0;" edge="1" parent="1" source="nwxhbYPmNWlyOMwlKoJM-10" target="nwxhbYPmNWlyOMwlKoJM-11">
          <mxGeometry relative="1" as="geometry">
            <Array as="points" />
          </mxGeometry>
        </mxCell>
        <mxCell id="nwxhbYPmNWlyOMwlKoJM-24" value="" style="curved=1;startArrow=none;endArrow=block;exitX=0.5;exitY=0.99;entryX=0.5;entryY=0.01;rounded=0;" edge="1" parent="1" source="nwxhbYPmNWlyOMwlKoJM-11" target="nwxhbYPmNWlyOMwlKoJM-12">
          <mxGeometry relative="1" as="geometry">
            <Array as="points" />
          </mxGeometry>
        </mxCell>
      </root>
    </mxGraphModel>
  </diagram>
</mxfile>
